<svg width="134" height="40" viewBox="0 0 134 40" fill="none" xmlns="http://www.w3.org/2000/svg">
<path d="M14.73 39H9.89V8.915C9.89 7.63167 9.98167 6.53167 10.165 5.615L0.87 8.53L0.21 4.955L9.89 1.05H14.73V39ZM27.3491 4.9C29.2924 1.85667 32.6657 0.335 37.4691 0.335C42.2724 0.335 45.6457 1.85667 47.5891 4.9C49.5691 7.94333 50.5591 12.985 50.5591 20.025C50.5591 27.065 49.5691 32.1067 47.5891 35.15C45.6457 38.1933 42.2724 39.715 37.4691 39.715C32.6657 39.715 29.2924 38.1933 27.3491 35.15C25.4057 32.1067 24.4341 27.065 24.4341 20.025C24.4341 12.985 25.4057 7.94333 27.3491 4.9ZM43.9591 8.035C42.7491 5.725 40.5857 4.57 37.4691 4.57C34.3524 4.57 32.1891 5.725 30.9791 8.035C29.7691 10.345 29.1641 14.3417 29.1641 20.025C29.1641 25.7083 29.7691 29.705 30.9791 32.015C32.1891 34.325 34.3524 35.48 37.4691 35.48C40.5857 35.48 42.7491 34.325 43.9591 32.015C45.2057 29.705 45.8291 25.7083 45.8291 20.025C45.8291 14.3417 45.2057 10.345 43.9591 8.035ZM60.4887 4.9C62.432 1.85667 65.8054 0.335 70.6087 0.335C75.412 0.335 78.7854 1.85667 80.7287 4.9C82.7087 7.94333 83.6987 12.985 83.6987 20.025C83.6987 27.065 82.7087 32.1067 80.7287 35.15C78.7854 38.1933 75.412 39.715 70.6087 39.715C65.8054 39.715 62.432 38.1933 60.4887 35.15C58.5454 32.1067 57.5737 27.065 57.5737 20.025C57.5737 12.985 58.5454 7.94333 60.4887 4.9ZM77.0987 8.035C75.8887 5.725 73.7254 4.57 70.6087 4.57C67.492 4.57 65.3287 5.725 64.1187 8.035C62.9087 10.345 62.3037 14.3417 62.3037 20.025C62.3037 25.7083 62.9087 29.705 64.1187 32.015C65.3287 34.325 67.492 35.48 70.6087 35.48C73.7254 35.48 75.8887 34.325 77.0987 32.015C78.3454 29.705 78.9687 25.7083 78.9687 20.025C78.9687 14.3417 78.3454 10.345 77.0987 8.035ZM98.5784 0.335C101.842 0.335 104.133 1.19667 105.453 2.92C106.773 4.64333 107.433 7.54 107.433 11.61C107.433 15.68 106.773 18.5767 105.453 20.3C104.133 22.0233 101.842 22.885 98.5784 22.885C95.3517 22.885 93.0784 22.0233 91.7584 20.3C90.4384 18.5767 89.7784 15.68 89.7784 11.61C89.7784 7.54 90.4384 4.64333 91.7584 2.92C93.0784 1.19667 95.3517 0.335 98.5784 0.335ZM101.053 39H97.7534L122.338 1.05H125.638L101.053 39ZM102.648 5.175C101.915 3.92833 100.558 3.305 98.5784 3.305C96.5984 3.305 95.2234 3.92833 94.4534 5.175C93.72 6.385 93.3534 8.53 93.3534 11.61C93.3534 14.69 93.72 16.8533 94.4534 18.1C95.2234 19.31 96.5984 19.915 98.5784 19.915C100.558 19.915 101.915 19.31 102.648 18.1C103.418 16.89 103.803 14.7267 103.803 11.61C103.803 8.53 103.418 6.385 102.648 5.175ZM118.103 19.585C119.423 17.8617 121.697 17 124.923 17C128.15 17 130.423 17.8617 131.743 19.585C133.063 21.3083 133.723 24.1867 133.723 28.22C133.723 32.29 133.063 35.1867 131.743 36.91C130.423 38.6333 128.15 39.495 124.923 39.495C121.697 39.495 119.423 38.6333 118.103 36.91C116.783 35.1867 116.123 32.29 116.123 28.22C116.123 24.1867 116.783 21.3083 118.103 19.585ZM128.993 21.785C128.223 20.575 126.848 19.97 124.868 19.97C122.888 19.97 121.513 20.575 120.743 21.785C120.01 22.9583 119.662 25.1033 119.698 28.22C119.662 31.3367 120.01 33.5183 120.743 34.765C121.513 35.975 122.888 36.58 124.868 36.58C126.848 36.58 128.223 35.975 128.993 34.765C129.763 33.5183 130.148 31.3367 130.148 28.22C130.148 25.14 129.763 22.995 128.993 21.785Z" fill="black"/>
</svg>
