<svg width="118" height="78" viewBox="0 0 118 78" fill="none" xmlns="http://www.w3.org/2000/svg">
<path d="M48.3535 32.877C38.7442 32.877 30.9254 40.6958 30.9254 50.3051C30.9254 59.9143 38.743 67.7319 48.3535 67.7319C57.964 67.7319 65.7816 59.9143 65.7816 50.3051C65.7816 40.6958 57.9628 32.877 48.3535 32.877ZM48.3535 63.9849C40.8108 63.9849 34.6736 57.8491 34.6736 50.3063C34.6736 42.7636 40.8108 36.6265 48.3535 36.6265C55.8975 36.6265 62.0334 42.7636 62.0334 50.3063C62.0334 57.8491 55.8962 63.9849 48.3535 63.9849Z" fill="#231F20"/>
<path d="M11.6694 32.8782C10.6336 32.8782 9.79523 33.7165 9.79523 34.7523V65.8578C9.79523 66.8923 10.6336 67.7319 11.6694 67.7319C12.7051 67.7319 13.5435 66.8923 13.5435 65.8578V34.7523C13.5435 33.7165 12.7051 32.8782 11.6694 32.8782Z" fill="#231F20"/>
<path d="M84.4467 32.8782C83.4122 32.8782 82.5725 33.7165 82.5725 34.7523V65.8578C82.5725 66.8923 83.4122 67.7319 84.4467 67.7319C85.4812 67.7319 86.3208 66.8923 86.3208 65.8578V34.7523C86.3208 33.7165 85.4824 32.8782 84.4467 32.8782Z" fill="#231F20"/>
<path d="M115.231 0.0909424H23.5013C22.4656 0.0909424 21.6272 0.929301 21.6272 1.96507V11.2345H13.2311C12.1954 11.2345 11.357 12.0729 11.357 13.1086V23.4138H2.06759C1.03183 23.4138 0.193466 24.2522 0.193466 25.2879V75.3234C0.193466 76.3579 1.03183 77.1975 2.06759 77.1975H93.7986C94.8331 77.1975 95.6727 76.3579 95.6727 75.3234V65.0182H104.963C105.998 65.0182 106.837 64.1786 106.837 63.144V53.8746H115.232C116.267 53.8746 117.106 53.035 117.106 52.0005V1.96507C117.105 0.929301 116.266 0.0909424 115.231 0.0909424ZM3.94172 73.4492V27.1621H91.9244V63.1315C91.9244 63.1353 91.9232 63.139 91.9232 63.144C91.9232 63.149 91.9244 63.1515 91.9244 63.1565V73.4492H3.94172ZM103.088 61.2699H95.6714V25.2879C95.6714 24.2522 94.8318 23.4138 93.7973 23.4138H15.1053V14.9827H103.088V61.2699ZM113.357 50.1264H106.836V13.1086C106.836 12.0729 105.997 11.2345 104.962 11.2345H25.3755V3.83919H113.357V50.1264Z" fill="#231F20"/>
</svg>
