<svg width="107" height="114" viewBox="0 0 107 114" fill="none" xmlns="http://www.w3.org/2000/svg">
<path d="M106.191 32.3913V32.3863C106.191 32.3813 106.19 32.3775 106.19 32.3725C106.189 32.2376 106.17 32.1027 106.14 31.9702C106.13 31.9278 106.116 31.8878 106.104 31.8465C106.076 31.7553 106.041 31.6654 105.999 31.5767C105.976 31.5304 105.953 31.4842 105.926 31.4405C105.909 31.4105 105.896 31.3768 105.878 31.348C105.844 31.298 105.803 31.2568 105.765 31.2106C105.735 31.1731 105.708 31.1356 105.675 31.1006C105.579 30.9982 105.475 30.907 105.362 30.8308C105.36 30.8295 105.359 30.8283 105.358 30.827L105.357 30.8258C105.353 30.8233 105.349 30.8208 105.347 30.8183L59.9054 0.576123C59.2757 0.157568 58.4573 0.157568 57.8276 0.576123L41.8325 11.2399L41.8313 11.2411L27.1344 21.0378C26.9332 21.1265 26.7446 21.2477 26.5822 21.4064L1.70251 37.9937C1.58257 38.0724 1.47262 38.1698 1.37017 38.2773C1.33768 38.3123 1.31019 38.3498 1.28021 38.3872C1.24273 38.4335 1.20149 38.4734 1.16776 38.5247C1.14777 38.5534 1.13652 38.5859 1.11903 38.6159C1.09279 38.6609 1.06781 38.7071 1.04532 38.7558C1.00409 38.842 0.970352 38.9307 0.942865 39.0207C0.929121 39.0644 0.915378 39.1057 0.905382 39.1494C0.876646 39.2768 0.859154 39.4055 0.857904 39.5355C0.857904 39.5454 0.854156 39.5542 0.854156 39.5629V39.5729V39.5742V81.7558C0.854156 82.383 1.16776 82.9689 1.69002 83.3163L47.1401 113.567C47.1463 113.571 47.1526 113.572 47.1588 113.576C47.29 113.661 47.4337 113.725 47.5836 113.776C47.6211 113.788 47.6573 113.801 47.6948 113.811C47.8497 113.852 48.0097 113.881 48.1771 113.881C48.3445 113.881 48.5044 113.852 48.6594 113.81C48.6968 113.8 48.7343 113.787 48.7706 113.775C48.9242 113.723 49.0717 113.658 49.2041 113.571C49.2079 113.568 49.2116 113.567 49.2154 113.566L49.2228 113.561C49.2241 113.561 49.2241 113.56 49.2253 113.56L105.354 76.1396C105.875 75.7923 106.189 75.2076 106.189 74.5804V32.4C106.191 32.3975 106.191 32.3938 106.191 32.3913ZM58.8683 4.38685L100.936 32.3875L87.6312 41.2584L46.1893 12.8404L58.8683 4.38685ZM48.1783 67.5611L6.10796 39.5604L27.904 25.0297L69.3472 53.4477L48.1783 67.5611ZM42.8283 15.0806L84.2703 43.4986L72.7069 51.2075L31.2637 22.7895L42.8283 15.0806ZM74.5273 54.4985L85.6534 47.0807L85.2573 64.74L74.5273 71.7792V54.4985ZM4.60241 43.0601L46.3042 70.8171V108.507L4.60241 80.7512V43.0601ZM50.0525 108.505V70.8159L70.779 56.9973V75.2501C70.779 75.9385 71.1576 76.5719 71.7623 76.8993C72.0422 77.0492 72.3483 77.1242 72.6532 77.1242C73.0117 77.1242 73.3703 77.0217 73.6814 76.8168L88.1372 67.3325C88.652 66.9939 88.9681 66.4242 88.9831 65.807L89.4591 44.5431L102.443 35.8872V73.5771L50.0525 108.505Z" fill="#231F20"/>
<path d="M42.8758 80.1277C43.4818 80.1277 44.0765 79.8354 44.4376 79.2919C45.0111 78.431 44.7774 77.2666 43.9166 76.6931L22.4441 62.401C21.582 61.8275 20.4175 62.0599 19.8453 62.9233C19.2718 63.7841 19.5054 64.9486 20.3663 65.522L41.84 79.8141C42.1586 80.0265 42.5197 80.1277 42.8758 80.1277Z" fill="#231F20"/>
<path d="M43.9166 86.4698L31.6198 78.2848C30.7577 77.7113 29.5932 77.945 29.021 78.8071C28.4475 79.6679 28.6812 80.8324 29.542 81.4059L41.8388 89.5908C42.1574 89.8032 42.5185 89.9044 42.8758 89.9044C43.4818 89.9044 44.0765 89.6121 44.4376 89.0686C45.0111 88.2065 44.7774 87.0433 43.9166 86.4698Z" fill="#231F20"/>
</svg>
