<svg width="57" height="57" viewBox="0 0 57 57" fill="none" xmlns="http://www.w3.org/2000/svg">
<path d="M28.2564 0.149658C12.7336 0.149658 0.149658 12.7336 0.149658 28.2564C0.149658 43.7792 12.7336 56.3632 28.2564 56.3632C43.7792 56.3632 56.3632 43.7792 56.3632 28.2564C56.3632 12.7336 43.7792 0.149658 28.2564 0.149658ZM36.5142 16.2601C35.1782 16.2601 33.8336 16.2601 32.4982 16.2601C31.6529 16.2054 30.7808 16.8506 30.6264 17.6959C30.6081 19.159 30.6173 20.6216 30.6173 22.0847C32.5797 22.0938 34.5427 22.0847 36.5057 22.0938C36.3604 24.2107 36.097 26.3191 35.7881 28.4092C34.0525 28.4274 32.3169 28.4092 30.5813 28.4183C30.5631 34.6607 30.5905 40.894 30.5722 47.1369C27.9914 47.146 25.4202 47.1278 22.8393 47.146C22.7937 40.9036 22.8393 34.6613 22.812 28.4183C21.558 28.4092 20.295 28.4274 19.041 28.4092C19.0501 26.3099 19.041 24.2113 19.041 22.1212C20.295 22.1029 21.558 22.1212 22.812 22.112C22.8485 20.0767 22.7755 18.0321 22.8485 15.9968C22.9847 14.37 23.5934 12.7439 24.8023 11.6262C26.2655 10.236 28.3368 9.76348 30.2998 9.70876C32.3716 9.69052 34.4435 9.69964 36.5148 9.69964C36.5234 11.8895 36.5234 14.0702 36.5142 16.2601Z" fill="white"/>
</svg>
