<svg width="57" height="57" viewBox="0 0 57 57" fill="none" xmlns="http://www.w3.org/2000/svg">
<path d="M28.5 0C12.76 0 0 12.76 0 28.5C0 44.24 12.76 57 28.5 57C44.24 57 57 44.24 57 28.5C57 12.76 44.24 0 28.5 0ZM40.8589 32.2671C41.0832 32.5445 41.6166 33.0849 42.4604 33.8894H42.4801L42.4997 33.9085L42.5194 33.9287L42.5593 33.968C44.418 35.6949 45.6768 37.152 46.3362 38.3385C46.3761 38.4038 46.4188 38.487 46.4651 38.5858C46.5107 38.6847 46.557 38.8592 46.6032 39.1095C46.6489 39.3609 46.6454 39.584 46.5934 39.7816C46.5408 39.9787 46.3761 40.1614 46.0992 40.3255C45.8224 40.4908 45.4334 40.5728 44.9324 40.5728L39.8701 40.6526C39.5539 40.7185 39.1846 40.6856 38.7627 40.5538C38.3402 40.4214 37.9981 40.2764 37.7345 40.1186L37.3386 39.8805C36.9427 39.6036 36.4815 39.1817 35.9544 38.6153C35.4268 38.0484 34.9754 37.5374 34.5997 37.0826C34.224 36.6278 33.8218 36.2463 33.3929 35.9354C32.9641 35.6256 32.5919 35.5233 32.2758 35.629C32.2365 35.6429 32.1833 35.666 32.1174 35.6984C32.0509 35.7313 31.9394 35.8261 31.781 35.9851C31.6227 36.1434 31.4811 36.3382 31.3557 36.5682C31.2302 36.7994 31.1181 37.1421 31.0193 37.597C30.9205 38.0512 30.8771 38.5627 30.891 39.1297C30.891 39.3268 30.8673 39.5088 30.8216 39.6736C30.7754 39.8383 30.7257 39.9602 30.6731 40.0388L30.5939 40.1377C30.3564 40.3891 30.0073 40.5336 29.5461 40.5728H27.2719C26.3356 40.626 25.3733 40.5174 24.385 40.2469C23.3967 39.9758 22.5292 39.6273 21.7848 39.1985C21.0392 38.7708 20.3607 38.3356 19.7481 37.894C19.1349 37.4519 18.6702 37.0733 18.354 36.7572L17.8599 36.2821C17.7281 36.1509 17.5466 35.9527 17.316 35.6886C17.0854 35.425 16.6144 34.8257 15.9024 33.8894C15.1903 32.9531 14.4916 31.9585 13.8061 30.9031C13.1207 29.8484 12.3133 28.4572 11.3834 26.7303C10.454 25.004 9.59401 23.2112 8.8028 21.3519C8.72362 21.1415 8.68374 20.9635 8.68374 20.8184C8.68374 20.6739 8.70339 20.5682 8.74327 20.5017L8.82245 20.3832C9.02011 20.1324 9.39578 20.007 9.94945 20.007L15.3678 19.9677C15.5261 19.9943 15.6775 20.037 15.8226 20.0966C15.9677 20.1555 16.0734 20.2116 16.1393 20.2642L16.2382 20.3237C16.4491 20.4693 16.6069 20.6797 16.7127 20.9566C16.9762 21.6166 17.2796 22.2986 17.6224 23.0037C17.9651 23.7088 18.2356 24.2463 18.4332 24.615L18.7494 25.1889C19.1314 25.9795 19.5007 26.6656 19.8567 27.2453C20.2133 27.8255 20.5323 28.2775 20.8161 28.6C21.0993 28.9231 21.3727 29.1774 21.6368 29.3611C21.9004 29.5461 22.1246 29.6386 22.3095 29.6386C22.4939 29.6386 22.6719 29.6056 22.8436 29.5397C22.8696 29.5264 22.9025 29.4935 22.9424 29.4409C22.9823 29.3883 23.0609 29.2432 23.1799 29.0051C23.2984 28.7682 23.3874 28.4584 23.447 28.0758C23.5065 27.6943 23.5689 27.1603 23.6348 26.4749C23.7007 25.7888 23.7007 24.9652 23.6348 24.0029C23.6082 23.4753 23.5487 22.9944 23.4568 22.5592C23.3643 22.1246 23.2718 21.8212 23.1799 21.6495L23.0609 21.4126C22.7315 20.9647 22.1714 20.6809 21.3802 20.5618C21.2085 20.5364 21.2415 20.378 21.479 20.0879C21.7033 19.8371 21.9535 19.64 22.2304 19.4943C22.9291 19.1522 24.5046 18.9938 26.9569 19.0193C28.0376 19.0331 28.9277 19.1181 29.6264 19.2765C29.89 19.3429 30.1108 19.4313 30.2888 19.5435C30.4668 19.655 30.602 19.8139 30.6945 20.0174C30.7864 20.222 30.8557 20.4329 30.902 20.6502C30.9482 20.8681 30.9713 21.1687 30.9713 21.5501C30.9713 21.9327 30.965 22.2957 30.9517 22.6378C30.9384 22.9806 30.9222 23.4458 30.9025 24.0318C30.8829 24.6185 30.8725 25.1629 30.8725 25.6634C30.8725 25.8091 30.8661 26.0853 30.8528 26.4939C30.8396 26.9031 30.8355 27.2193 30.843 27.4429C30.8494 27.6672 30.8725 27.9348 30.9118 28.244C30.9517 28.5537 31.0274 28.8115 31.1395 29.015C31.2511 29.2196 31.3996 29.3808 31.5845 29.4993C31.6897 29.5264 31.8018 29.5525 31.9209 29.579C32.0394 29.605 32.2105 29.5334 32.4347 29.3611C32.6584 29.1901 32.9092 28.9624 33.186 28.6792C33.4629 28.3965 33.8056 27.955 34.2142 27.3545C34.6223 26.7557 35.0707 26.0466 35.5585 25.2288C36.3498 23.8579 37.0549 22.3743 37.6744 20.7791C37.727 20.6468 37.7929 20.5318 37.8721 20.4329C37.9513 20.3335 38.0235 20.2642 38.0894 20.2249L38.1686 20.1653C38.1946 20.1521 38.2275 20.1359 38.2674 20.1162C38.3073 20.0971 38.3928 20.0769 38.5246 20.0567C38.6564 20.0376 38.7881 20.0341 38.9205 20.0474L44.6156 20.007C45.1294 19.9417 45.5513 19.9579 45.8808 20.0561C46.2102 20.1549 46.4148 20.2642 46.494 20.3827L46.613 20.5803C46.9159 21.4247 45.9276 23.3614 43.647 26.3939C43.3303 26.8164 42.9014 27.377 42.3616 28.0752C41.3334 29.3941 40.7405 30.2576 40.5833 30.6673C40.3579 31.2066 40.4503 31.7406 40.8589 32.2671Z" fill="white"/>
</svg>
